STARTFONT 2.1
FONT -FontForge-IBM Plex Mono Light-Light-I-Normal--15-140-75-75-C-90-ISO10646-1
SIZE 14 75 75
FONTBOUNDINGBOX 10 15 0 -3
COMMENT "Generated by fontforge, http://fontforge.sourceforge.net"
COMMENT "Copyright 2017 IBM Corp. All rights reserved."
STARTPROPERTIES 41
FOUNDRY "FontForge"
FAMILY_NAME "IBM Plex Mono Light"
WEIGHT_NAME "Light"
SLANT "I"
SETWIDTH_NAME "Normal"
ADD_STYLE_NAME ""
PIXEL_SIZE 15
POINT_SIZE 140
RESOLUTION_X 75
RESOLUTION_Y 75
SPACING "C"
AVERAGE_WIDTH 90
CHARSET_REGISTRY "ISO10646"
CHARSET_ENCODING "1"
FONTNAME_REGISTRY ""
CHARSET_COLLECTIONS "ISO10646-1"
FONT_NAME "IBMPlexMono-LightItalic"
FACE_NAME "IBM Plex Mono Light Italic"
COPYRIGHT "Copyright 2017 IBM Corp. All rights reserved."
FONT_VERSION "2.1"
FONT_ASCENT 12
FONT_DESCENT 3
UNDERLINE_POSITION -3
UNDERLINE_THICKNESS 1
X_HEIGHT 7
CAP_HEIGHT 9
RAW_ASCENT 780
RAW_DESCENT 220
ITALIC_ANGLE 5184
NORM_SPACE 9
RELATIVE_WEIGHT 30
RELATIVE_SETWIDTH 50
SUPERSCRIPT_X 0
SUPERSCRIPT_Y 5
SUPERSCRIPT_SIZE 9
SUBSCRIPT_X 0
SUBSCRIPT_Y 1
SUBSCRIPT_SIZE 9
FIGURE_WIDTH 9
AVG_LOWERCASE_WIDTH 90
AVG_UPPERCASE_WIDTH 90
ENDPROPERTIES
CHARS 95
STARTCHAR space
ENCODING 32
SWIDTH 600 0
DWIDTH 9 0
BBX 1 1 0 0
BITMAP
00
ENDCHAR
STARTCHAR exclam
ENCODING 33
SWIDTH 600 0
DWIDTH 9 0
BBX 3 10 3 0
BITMAP
20
20
20
40
40
40
00
00
C0
C0
ENDCHAR
STARTCHAR quotedbl
ENCODING 34
SWIDTH 600 0
DWIDTH 9 0
BBX 4 4 3 7
BITMAP
50
50
50
90
ENDCHAR
STARTCHAR numbersign
ENCODING 35
SWIDTH 600 0
DWIDTH 9 0
BBX 9 10 0 0
BITMAP
0D00
0900
0A00
7380
1200
1400
E700
2400
2800
4800
ENDCHAR
STARTCHAR dollar
ENCODING 36
SWIDTH 600 0
DWIDTH 9 0
BBX 9 14 0 -2
BITMAP
0400
0400
1E00
2500
2880
2800
3800
0E00
0900
8900
5200
3C00
1000
1000
ENDCHAR
STARTCHAR percent
ENCODING 37
SWIDTH 600 0
DWIDTH 9 0
BBX 10 10 0 0
BITMAP
38C0
4880
4900
4A00
3200
1700
2900
4900
4900
8600
ENDCHAR
STARTCHAR ampersand
ENCODING 38
SWIDTH 600 0
DWIDTH 9 0
BBX 9 10 0 0
BITMAP
1C00
2200
2200
2200
3400
5800
8800
8480
8D00
7300
ENDCHAR
STARTCHAR quotesingle
ENCODING 39
SWIDTH 600 0
DWIDTH 9 0
BBX 1 4 5 7
BITMAP
80
80
80
80
ENDCHAR
STARTCHAR parenleft
ENCODING 40
SWIDTH 600 0
DWIDTH 9 0
BBX 5 13 3 -2
BITMAP
08
10
20
40
40
80
80
80
80
80
80
40
20
ENDCHAR
STARTCHAR parenright
ENCODING 41
SWIDTH 600 0
DWIDTH 9 0
BBX 5 13 1 -2
BITMAP
20
10
08
08
08
08
08
08
10
10
20
40
80
ENDCHAR
STARTCHAR asterisk
ENCODING 42
SWIDTH 600 0
DWIDTH 9 0
BBX 7 7 1 1
BITMAP
08
10
92
7C
10
28
CC
ENDCHAR
STARTCHAR plus
ENCODING 43
SWIDTH 600 0
DWIDTH 9 0
BBX 7 7 1 1
BITMAP
18
10
10
FE
10
10
10
ENDCHAR
STARTCHAR comma
ENCODING 44
SWIDTH 600 0
DWIDTH 9 0
BBX 3 4 2 -2
BITMAP
60
40
40
80
ENDCHAR
STARTCHAR hyphen
ENCODING 45
SWIDTH 600 0
DWIDTH 9 0
BBX 5 1 2 4
BITMAP
F8
ENDCHAR
STARTCHAR period
ENCODING 46
SWIDTH 600 0
DWIDTH 9 0
BBX 2 2 3 0
BITMAP
C0
C0
ENDCHAR
STARTCHAR slash
ENCODING 47
SWIDTH 600 0
DWIDTH 9 0
BBX 9 13 0 -2
BITMAP
0180
0100
0200
0200
0400
0400
0800
1000
1000
2000
2000
4000
C000
ENDCHAR
STARTCHAR zero
ENCODING 48
SWIDTH 600 0
DWIDTH 9 0
BBX 7 10 1 0
BITMAP
1C
62
42
82
82
92
82
82
84
78
ENDCHAR
STARTCHAR one
ENCODING 49
SWIDTH 600 0
DWIDTH 9 0
BBX 7 10 1 0
BITMAP
18
38
68
88
08
10
10
10
10
FE
ENDCHAR
STARTCHAR two
ENCODING 50
SWIDTH 600 0
DWIDTH 9 0
BBX 7 10 1 0
BITMAP
3C
62
42
02
06
0C
10
20
C0
FC
ENDCHAR
STARTCHAR three
ENCODING 51
SWIDTH 600 0
DWIDTH 9 0
BBX 8 10 0 0
BITMAP
1E
31
01
03
1C
02
02
02
C2
3C
ENDCHAR
STARTCHAR four
ENCODING 52
SWIDTH 600 0
DWIDTH 9 0
BBX 8 10 0 0
BITMAP
03
05
0A
12
12
22
42
FF
04
04
ENDCHAR
STARTCHAR five
ENCODING 53
SWIDTH 600 0
DWIDTH 9 0
BBX 7 10 1 0
BITMAP
3E
40
40
40
7C
46
02
02
84
78
ENDCHAR
STARTCHAR six
ENCODING 54
SWIDTH 600 0
DWIDTH 9 0
BBX 7 10 1 0
BITMAP
0C
10
20
7C
46
82
82
82
84
78
ENDCHAR
STARTCHAR seven
ENCODING 55
SWIDTH 600 0
DWIDTH 9 0
BBX 7 10 2 0
BITMAP
FE
84
84
08
10
10
20
20
40
80
ENDCHAR
STARTCHAR eight
ENCODING 56
SWIDTH 600 0
DWIDTH 9 0
BBX 7 10 1 0
BITMAP
3E
42
42
42
3C
46
82
82
84
78
ENDCHAR
STARTCHAR nine
ENCODING 57
SWIDTH 600 0
DWIDTH 9 0
BBX 7 10 1 0
BITMAP
3C
42
42
82
46
7E
04
08
10
60
ENDCHAR
STARTCHAR colon
ENCODING 58
SWIDTH 600 0
DWIDTH 9 0
BBX 3 8 3 0
BITMAP
60
60
00
00
00
00
C0
C0
ENDCHAR
STARTCHAR semicolon
ENCODING 59
SWIDTH 600 0
DWIDTH 9 0
BBX 4 10 2 -2
BITMAP
30
30
00
00
00
00
60
40
40
80
ENDCHAR
STARTCHAR less
ENCODING 60
SWIDTH 600 0
DWIDTH 9 0
BBX 8 8 1 1
BITMAP
03
04
18
60
C0
20
18
04
ENDCHAR
STARTCHAR equal
ENCODING 61
SWIDTH 600 0
DWIDTH 9 0
BBX 7 4 1 3
BITMAP
FE
00
00
FE
ENDCHAR
STARTCHAR greater
ENCODING 62
SWIDTH 600 0
DWIDTH 9 0
BBX 7 8 1 1
BITMAP
40
30
08
06
06
18
60
80
ENDCHAR
STARTCHAR question
ENCODING 63
SWIDTH 600 0
DWIDTH 9 0
BBX 6 10 2 0
BITMAP
38
44
84
04
08
30
20
00
60
40
ENDCHAR
STARTCHAR at
ENCODING 64
SWIDTH 600 0
DWIDTH 9 0
BBX 7 12 1 -2
BITMAP
1C
22
42
5E
92
A2
A2
A4
9C
80
C0
78
ENDCHAR
STARTCHAR A
ENCODING 65
SWIDTH 600 0
DWIDTH 9 0
BBX 8 10 0 0
BITMAP
04
0C
0A
12
12
22
3E
42
41
81
ENDCHAR
STARTCHAR B
ENCODING 66
SWIDTH 600 0
DWIDTH 9 0
BBX 7 10 1 0
BITMAP
7E
42
42
42
7C
86
82
82
84
F8
ENDCHAR
STARTCHAR C
ENCODING 67
SWIDTH 600 0
DWIDTH 9 0
BBX 8 10 1 0
BITMAP
1C
22
41
40
80
80
80
82
44
78
ENDCHAR
STARTCHAR D
ENCODING 68
SWIDTH 600 0
DWIDTH 9 0
BBX 7 10 1 0
BITMAP
3C
42
42
42
42
42
82
82
84
F8
ENDCHAR
STARTCHAR E
ENCODING 69
SWIDTH 600 0
DWIDTH 9 0
BBX 8 10 1 0
BITMAP
7F
40
40
40
7E
80
80
80
80
FC
ENDCHAR
STARTCHAR F
ENCODING 70
SWIDTH 600 0
DWIDTH 9 0
BBX 8 10 1 0
BITMAP
7F
40
40
40
7E
80
80
80
80
80
ENDCHAR
STARTCHAR G
ENCODING 71
SWIDTH 600 0
DWIDTH 9 0
BBX 7 10 1 0
BITMAP
1C
22
42
40
80
8E
82
82
CC
74
ENDCHAR
STARTCHAR H
ENCODING 72
SWIDTH 600 0
DWIDTH 9 0
BBX 8 10 1 0
BITMAP
41
41
42
42
7E
82
82
84
84
84
ENDCHAR
STARTCHAR I
ENCODING 73
SWIDTH 600 0
DWIDTH 9 0
BBX 8 10 1 0
BITMAP
7F
08
08
10
10
10
10
10
10
FC
ENDCHAR
STARTCHAR J
ENCODING 74
SWIDTH 600 0
DWIDTH 9 0
BBX 7 10 1 0
BITMAP
3E
02
02
02
04
04
04
84
88
78
ENDCHAR
STARTCHAR K
ENCODING 75
SWIDTH 600 0
DWIDTH 9 0
BBX 9 10 1 0
BITMAP
4180
4200
4400
4800
5000
6800
C800
8400
8400
8200
ENDCHAR
STARTCHAR L
ENCODING 76
SWIDTH 600 0
DWIDTH 9 0
BBX 6 10 1 0
BITMAP
20
20
40
40
40
40
40
40
80
FC
ENDCHAR
STARTCHAR M
ENCODING 77
SWIDTH 600 0
DWIDTH 9 0
BBX 9 10 0 0
BITMAP
2180
3180
3280
5500
4D00
4900
4900
4100
4200
8200
ENDCHAR
STARTCHAR N
ENCODING 78
SWIDTH 600 0
DWIDTH 9 0
BBX 8 10 1 0
BITMAP
61
61
62
52
92
92
8A
8C
8C
84
ENDCHAR
STARTCHAR O
ENCODING 79
SWIDTH 600 0
DWIDTH 9 0
BBX 7 10 1 0
BITMAP
1C
62
42
82
82
82
82
82
84
78
ENDCHAR
STARTCHAR P
ENCODING 80
SWIDTH 600 0
DWIDTH 9 0
BBX 8 10 1 0
BITMAP
7E
43
41
41
42
7C
80
80
80
80
ENDCHAR
STARTCHAR Q
ENCODING 81
SWIDTH 600 0
DWIDTH 9 0
BBX 7 13 1 -3
BITMAP
1C
62
42
82
82
82
82
82
84
78
10
16
0C
ENDCHAR
STARTCHAR R
ENCODING 82
SWIDTH 600 0
DWIDTH 9 0
BBX 8 10 1 0
BITMAP
7E
43
41
41
42
7C
88
88
84
84
ENDCHAR
STARTCHAR S
ENCODING 83
SWIDTH 600 0
DWIDTH 9 0
BBX 9 10 0 0
BITMAP
1E00
2100
2080
2000
3800
0600
0100
8100
4200
3C00
ENDCHAR
STARTCHAR T
ENCODING 84
SWIDTH 600 0
DWIDTH 9 0
BBX 9 10 1 0
BITMAP
7F80
8800
0800
1000
1000
1000
1000
1000
1000
2000
ENDCHAR
STARTCHAR U
ENCODING 85
SWIDTH 600 0
DWIDTH 9 0
BBX 8 10 1 0
BITMAP
41
41
42
42
82
82
82
84
84
78
ENDCHAR
STARTCHAR V
ENCODING 86
SWIDTH 600 0
DWIDTH 9 0
BBX 7 10 2 0
BITMAP
82
82
84
84
88
88
50
50
60
60
ENDCHAR
STARTCHAR W
ENCODING 87
SWIDTH 600 0
DWIDTH 9 0
BBX 8 10 1 0
BITMAP
C1
81
89
9A
AA
AA
AA
CC
CC
8C
ENDCHAR
STARTCHAR X
ENCODING 88
SWIDTH 600 0
DWIDTH 9 0
BBX 10 10 0 0
BITMAP
20C0
1100
1200
0E00
0C00
0C00
1400
2200
4200
8100
ENDCHAR
STARTCHAR Y
ENCODING 89
SWIDTH 600 0
DWIDTH 9 0
BBX 9 10 1 0
BITMAP
C180
4100
4200
2400
2800
1000
1000
1000
1000
2000
ENDCHAR
STARTCHAR Z
ENCODING 90
SWIDTH 600 0
DWIDTH 9 0
BBX 9 10 0 0
BITMAP
3F80
0180
0100
0200
0400
0800
1000
2000
4000
FF00
ENDCHAR
STARTCHAR bracketleft
ENCODING 91
SWIDTH 600 0
DWIDTH 9 0
BBX 6 13 3 -2
BITMAP
3C
40
40
40
40
40
80
80
80
80
80
80
F0
ENDCHAR
STARTCHAR backslash
ENCODING 92
SWIDTH 600 0
DWIDTH 9 0
BBX 4 13 3 -2
BITMAP
80
80
80
80
40
40
40
40
20
20
20
20
30
ENDCHAR
STARTCHAR bracketright
ENCODING 93
SWIDTH 600 0
DWIDTH 9 0
BBX 6 13 0 -2
BITMAP
3C
04
04
04
04
08
08
08
08
08
08
10
F0
ENDCHAR
STARTCHAR asciicircum
ENCODING 94
SWIDTH 600 0
DWIDTH 9 0
BBX 7 6 1 4
BITMAP
08
14
24
42
42
82
ENDCHAR
STARTCHAR underscore
ENCODING 95
SWIDTH 600 0
DWIDTH 9 0
BBX 7 1 0 -2
BITMAP
FE
ENDCHAR
STARTCHAR grave
ENCODING 96
SWIDTH 600 0
DWIDTH 9 0
BBX 1 3 4 9
BITMAP
80
80
80
ENDCHAR
STARTCHAR a
ENCODING 97
SWIDTH 600 0
DWIDTH 9 0
BBX 7 8 1 0
BITMAP
3A
46
82
84
84
84
8C
74
ENDCHAR
STARTCHAR b
ENCODING 98
SWIDTH 600 0
DWIDTH 9 0
BBX 7 11 1 0
BITMAP
20
40
40
5C
62
42
42
82
82
C4
B8
ENDCHAR
STARTCHAR c
ENCODING 99
SWIDTH 600 0
DWIDTH 9 0
BBX 7 8 1 0
BITMAP
3C
44
42
80
80
84
44
78
ENDCHAR
STARTCHAR d
ENCODING 100
SWIDTH 600 0
DWIDTH 9 0
BBX 8 11 1 0
BITMAP
01
02
02
3A
46
82
82
84
84
8C
74
ENDCHAR
STARTCHAR e
ENCODING 101
SWIDTH 600 0
DWIDTH 9 0
BBX 7 8 1 0
BITMAP
3C
42
86
F8
80
82
C4
78
ENDCHAR
STARTCHAR f
ENCODING 102
SWIDTH 600 0
DWIDTH 9 0
BBX 9 14 0 -3
BITMAP
0780
0400
0400
3F80
0800
0800
0800
0800
0800
0800
9000
9000
5000
3000
ENDCHAR
STARTCHAR g
ENCODING 103
SWIDTH 600 0
DWIDTH 9 0
BBX 7 11 1 -3
BITMAP
3A
46
82
84
84
84
8C
74
04
88
F0
ENDCHAR
STARTCHAR h
ENCODING 104
SWIDTH 600 0
DWIDTH 9 0
BBX 7 11 1 0
BITMAP
20
20
40
5C
62
42
42
84
84
84
84
ENDCHAR
STARTCHAR i
ENCODING 105
SWIDTH 600 0
DWIDTH 9 0
BBX 7 11 1 0
BITMAP
08
10
00
F0
10
10
20
24
26
28
30
ENDCHAR
STARTCHAR j
ENCODING 106
SWIDTH 600 0
DWIDTH 9 0
BBX 7 14 1 -3
BITMAP
06
00
00
7C
04
04
04
08
08
08
88
C8
68
10
ENDCHAR
STARTCHAR k
ENCODING 107
SWIDTH 600 0
DWIDTH 9 0
BBX 8 11 1 0
BITMAP
20
40
40
5C
62
42
44
B8
92
97
8C
ENDCHAR
STARTCHAR l
ENCODING 108
SWIDTH 600 0
DWIDTH 9 0
BBX 6 11 2 0
BITMAP
F0
20
20
20
20
40
40
48
4C
70
60
ENDCHAR
STARTCHAR m
ENCODING 109
SWIDTH 600 0
DWIDTH 9 0
BBX 9 8 0 0
BITMAP
5B00
6C80
4900
4900
4900
4900
8900
9100
ENDCHAR
STARTCHAR n
ENCODING 110
SWIDTH 600 0
DWIDTH 9 0
BBX 7 8 1 0
BITMAP
5C
62
42
42
84
84
84
84
ENDCHAR
STARTCHAR o
ENCODING 111
SWIDTH 600 0
DWIDTH 9 0
BBX 7 8 1 0
BITMAP
3C
42
82
82
82
84
84
78
ENDCHAR
STARTCHAR p
ENCODING 112
SWIDTH 600 0
DWIDTH 9 0
BBX 8 11 0 -3
BITMAP
2E
31
21
21
41
41
62
5C
40
40
80
ENDCHAR
STARTCHAR q
ENCODING 113
SWIDTH 600 0
DWIDTH 9 0
BBX 7 11 1 -3
BITMAP
3A
46
82
84
84
84
8C
74
04
08
08
ENDCHAR
STARTCHAR r
ENCODING 114
SWIDTH 600 0
DWIDTH 9 0
BBX 7 8 2 0
BITMAP
EE
30
20
40
40
40
40
40
ENDCHAR
STARTCHAR s
ENCODING 115
SWIDTH 600 0
DWIDTH 9 0
BBX 7 8 1 0
BITMAP
3C
42
40
70
0C
04
84
78
ENDCHAR
STARTCHAR t
ENCODING 116
SWIDTH 600 0
DWIDTH 9 0
BBX 7 10 1 0
BITMAP
10
10
FE
20
20
20
20
26
38
30
ENDCHAR
STARTCHAR u
ENCODING 117
SWIDTH 600 0
DWIDTH 9 0
BBX 7 8 1 0
BITMAP
42
42
42
84
84
84
9C
74
ENDCHAR
STARTCHAR v
ENCODING 118
SWIDTH 600 0
DWIDTH 9 0
BBX 7 8 1 0
BITMAP
E2
22
42
42
42
44
48
70
ENDCHAR
STARTCHAR w
ENCODING 119
SWIDTH 600 0
DWIDTH 9 0
BBX 8 8 1 0
BITMAP
CA
92
93
92
92
92
B2
DC
ENDCHAR
STARTCHAR x
ENCODING 120
SWIDTH 600 0
DWIDTH 9 0
BBX 9 8 0 0
BITMAP
1300
6C80
0880
0800
0800
8800
9B00
6400
ENDCHAR
STARTCHAR y
ENCODING 121
SWIDTH 600 0
DWIDTH 9 0
BBX 8 11 0 -3
BITMAP
21
21
21
42
42
42
6E
3A
06
84
78
ENDCHAR
STARTCHAR z
ENCODING 122
SWIDTH 600 0
DWIDTH 9 0
BBX 7 8 1 0
BITMAP
7A
46
84
08
30
44
E2
9E
ENDCHAR
STARTCHAR braceleft
ENCODING 123
SWIDTH 600 0
DWIDTH 9 0
BBX 7 13 2 -2
BITMAP
1E
20
20
20
10
10
E0
30
20
40
40
40
70
ENDCHAR
STARTCHAR bar
ENCODING 124
SWIDTH 600 0
DWIDTH 9 0
BBX 3 13 3 -2
BITMAP
20
20
20
20
40
40
40
40
40
80
80
80
80
ENDCHAR
STARTCHAR braceright
ENCODING 125
SWIDTH 600 0
DWIDTH 9 0
BBX 7 13 1 -2
BITMAP
38
08
08
10
10
10
0E
30
20
20
10
10
E0
ENDCHAR
STARTCHAR asciitilde
ENCODING 126
SWIDTH 600 0
DWIDTH 9 0
BBX 7 2 1 4
BITMAP
72
8E
ENDCHAR
ENDFONT
